<?xml version="1.0" encoding="UTF-8" standalone="no"?>
<!DOCTYPE svg PUBLIC "-//W3C//DTD SVG 1.1//EN" "http://www.w3.org/Graphics/SVG/1.1/DTD/svg11.dtd">
<svg width="100%" height="100%" viewBox="0 0 3200 1010" version="1.1" xmlns="http://www.w3.org/2000/svg" xmlns:xlink="http://www.w3.org/1999/xlink" xml:space="preserve" style="fill-rule:evenodd;clip-rule:evenodd;stroke-linejoin:bevel;">
    <g transform="matrix(15.7201,0,0,15.7453,322.58,-572.711)">
        <text x="-21.055px" y="61.938px" style="font-family:'BodoniModa16pt-Book', 'Bodoni* 16pt';font-size:22.535px;">P<tspan x="-7.545px -0.424px 10.675px " y="61.938px 61.938px 61.938px ">lay</tspan> F to pa<tspan x="98.021px " y="61.938px ">y</tspan></text>
        <text x="-20.729px" y="84.445px" style="font-family:'BodoniModa16pt-Book', 'Bodoni* 16pt';font-size:22.507px;">r<tspan x="-1.7px 19.344px 38.046px 60.879px 81.923px 102.483px " y="84.445px 84.445px 84.445px 84.445px 84.445px 84.445px ">espect</tspan></text>
    </g>
    <g transform="matrix(5.71276,0,0,5.7219,2672.87,490.948)">
        <g transform="matrix(1,0,0,1,-92,-92)">
            <clipPath id="_clip1">
                <rect x="0" y="0" width="184" height="184"/>
            </clipPath>
            <g clip-path="url(#_clip1)">
                <path d="M-17.837,41.362L191.466,41.362" style="fill:none;stroke:black;stroke-width:3.25px;"/>
                <path d="M-17.837,66.363L191.466,66.363" style="fill:none;stroke:black;stroke-width:3.25px;"/>
                <path d="M-17.837,91.363L191.466,91.363" style="fill:none;stroke:black;stroke-width:3.25px;"/>
                <path d="M-17.837,116.363L191.466,116.363" style="fill:none;stroke:black;stroke-width:3.25px;"/>
                <path d="M-17.837,141.363L191.466,141.363" style="fill:none;stroke:black;stroke-width:3.25px;"/>
                <path d="M143.96,125.503L143.96,41.362" style="fill:none;stroke:black;stroke-width:3px;"/>
                <path d="M112.562,133.563C112.562,139.363 117.362,142.863 123.362,142.863C133.262,142.863 145.462,133.663 145.462,124.163C145.462,118.563 140.962,114.863 134.562,114.863C122.362,114.863 112.562,123.963 112.562,133.563" style="fill-rule:nonzero;"/>
                <path d="M43.063,141.563C45.363,141.563 47.963,141.363 49.963,140.963C51.063,140.763 51.263,140.663 51.463,141.863C52.663,148.563 54.163,157.263 54.163,161.963C54.163,176.763 44.163,178.563 38.263,178.563C32.863,178.563 30.263,176.963 30.263,175.663C30.263,174.963 31.163,174.663 33.463,173.963C36.563,173.063 40.163,170.363 40.163,164.563C40.163,159.063 36.663,154.363 30.563,154.363C23.863,154.363 19.863,159.663 19.863,165.863C19.863,172.363 23.763,182.163 38.863,182.163C45.563,182.163 58.563,179.163 58.563,162.163C58.563,156.463 56.763,146.963 55.663,140.763C55.463,139.563 55.563,139.663 56.963,139.063C67.063,135.063 73.763,126.563 73.763,115.263C73.763,102.463 64.363,91.162 49.663,91.162C47.063,91.162 47.063,91.162 46.763,89.363L44.263,74.863C44.063,73.663 44.263,73.563 44.863,72.963C55.663,62.862 63.863,50.163 63.863,34.863C63.863,26.163 61.463,17.563 57.363,11.563C55.863,9.363 53.263,6.563 52.163,6.563C50.763,6.563 47.663,9.163 45.663,11.363C38.263,19.563 35.863,32.063 35.863,42.463C35.863,48.263 36.563,54.763 37.263,58.862C37.463,60.063 37.563,60.263 36.363,61.263C21.963,73.163 6.663,87.463 6.663,107.663C6.663,125.063 18.563,141.563 43.063,141.563M14.663,114.363C14.663,108.463 15.663,100.563 23.963,91.162C29.963,84.463 34.563,80.763 39.263,76.963C40.263,76.163 40.463,76.263 40.663,77.363L42.763,90.162C43.063,92.063 43.063,91.963 41.263,92.563C32.463,95.563 26.763,103.463 26.763,111.963C26.763,120.963 31.463,127.363 38.263,129.663C39.063,129.963 40.263,130.263 40.963,130.263C41.763,130.263 42.163,129.763 42.163,129.163C42.163,128.463 41.363,128.163 40.663,127.863C36.463,126.063 33.463,121.763 33.463,117.163C33.463,111.463 37.363,107.163 43.463,105.463C45.063,105.063 45.263,105.163 45.463,106.263L50.463,136.063C50.663,137.163 50.563,137.163 49.063,137.463C47.463,137.763 45.463,137.963 43.463,137.963C25.963,137.963 14.663,128.263 14.663,114.363M53.663,22.063C56.963,22.063 59.663,24.763 59.663,30.263C59.663,41.362 50.163,50.362 42.263,57.263C41.563,57.862 41.163,57.763 40.963,56.463C40.563,53.862 40.363,50.463 40.363,47.263C40.363,31.663 47.563,22.063 53.663,22.063M50.763,104.663C58.863,105.363 65.563,112.163 65.563,120.963C65.563,127.263 61.763,132.363 56.163,135.163C54.963,135.763 54.763,135.763 54.563,134.563L49.663,106.063C49.463,104.863 49.563,104.563 50.763,104.663" style="fill-rule:nonzero;"/>
            </g>
        </g>
    </g>
</svg>
