<?xml version="1.0" encoding="UTF-8" standalone="no"?>
<svg width="100%" height="100%" viewBox="0 0 184 184"
 xmlns="http://www.w3.org/2000/svg" xmlns:xlink="http://www.w3.org/1999/xlink" version="1.2" baseProfile="tiny">
<title>Mind_Textures</title>
<desc>Generated by MuseScore 3.6.2</desc>
<polyline class="" fill="none" stroke="#000000" stroke-width="3.25" stroke-linejoin="bevel" points="-17.8369,41.3625 191.466,41.3625"/>
<polyline class="" fill="none" stroke="#000000" stroke-width="3.25" stroke-linejoin="bevel" points="-17.8369,66.3625 191.466,66.3625"/>
<polyline class="" fill="none" stroke="#000000" stroke-width="3.25" stroke-linejoin="bevel" points="-17.8369,91.3625 191.466,91.3625"/>
<polyline class="" fill="none" stroke="#000000" stroke-width="3.25" stroke-linejoin="bevel" points="-17.8369,116.363 191.466,116.363"/>
<polyline class="" fill="none" stroke="#000000" stroke-width="3.25" stroke-linejoin="bevel" points="-17.8369,141.363 191.466,141.363"/>
<polyline class="" fill="none" stroke="#000000" stroke-width="3.00" stroke-linejoin="bevel" points="143.96,125.503 143.96,41.3625"/>
<path class="" d="M112.562,133.563 C112.562,139.363 117.362,142.863 123.362,142.863 C133.262,142.863 145.462,133.663 145.462,124.163 C145.462,118.563 140.962,114.863 134.562,114.863 C122.362,114.863 112.562,123.963 112.562,133.563"/>
<path class="" d="M43.0631,141.563 C45.3631,141.563 47.9631,141.363 49.9631,140.963 C51.0631,140.763 51.2631,140.663 51.4631,141.863 C52.6631,148.563 54.1631,157.263 54.1631,161.963 C54.1631,176.763 44.1631,178.563 38.2631,178.563 C32.8631,178.563 30.2631,176.963 30.2631,175.663 C30.2631,174.963 31.1631,174.663 33.4631,173.963 C36.5631,173.063 40.1631,170.363 40.1631,164.563 C40.1631,159.063 36.6631,154.363 30.5631,154.363 C23.8631,154.363 19.8631,159.663 19.8631,165.863 C19.8631,172.363 23.7631,182.163 38.8631,182.163 C45.5631,182.163 58.5631,179.163 58.5631,162.163 C58.5631,156.463 56.7631,146.963 55.6631,140.763 C55.4631,139.563 55.5631,139.663 56.9631,139.063 C67.0631,135.063 73.7631,126.563 73.7631,115.263 C73.7631,102.463 64.3631,91.1625 49.6631,91.1625 C47.0631,91.1625 47.0631,91.1625 46.7631,89.3625 L44.2631,74.8625 C44.0631,73.6625 44.2631,73.5625 44.8631,72.9625 C55.6631,62.8625 63.8631,50.1625 63.8631,34.8625 C63.8631,26.1625 61.4631,17.5625 57.3631,11.5625 C55.8631,9.36255 53.2631,6.56255 52.1631,6.56255 C50.7631,6.56255 47.6631,9.16255 45.6631,11.3625 C38.2631,19.5625 35.8631,32.0625 35.8631,42.4625 C35.8631,48.2625 36.5631,54.7625 37.2631,58.8625 C37.4631,60.0625 37.5631,60.2625 36.3631,61.2625 C21.9631,73.1625 6.66308,87.4625 6.66308,107.663 C6.66308,125.063 18.5631,141.563 43.0631,141.563 M14.6631,114.363 C14.6631,108.463 15.6631,100.563 23.9631,91.1625 C29.9631,84.4625 34.5631,80.7625 39.2631,76.9625 C40.2631,76.1625 40.4631,76.2625 40.6631,77.3625 L42.7631,90.1625 C43.0631,92.0625 43.0631,91.9625 41.2631,92.5625 C32.4631,95.5625 26.7631,103.463 26.7631,111.963 C26.7631,120.963 31.4631,127.363 38.2631,129.663 C39.0631,129.963 40.2631,130.263 40.9631,130.263 C41.7631,130.263 42.1631,129.763 42.1631,129.163 C42.1631,128.463 41.3631,128.163 40.6631,127.863 C36.4631,126.063 33.4631,121.763 33.4631,117.163 C33.4631,111.463 37.3631,107.163 43.4631,105.463 C45.0631,105.063 45.2631,105.163 45.4631,106.263 L50.4631,136.063 C50.6631,137.163 50.5631,137.163 49.0631,137.463 C47.4631,137.763 45.4631,137.963 43.4631,137.963 C25.9631,137.963 14.6631,128.263 14.6631,114.363 M53.6631,22.0625 C56.9631,22.0625 59.6631,24.7625 59.6631,30.2625 C59.6631,41.3625 50.1631,50.3625 42.2631,57.2625 C41.5631,57.8625 41.1631,57.7625 40.9631,56.4625 C40.5631,53.8625 40.3631,50.4625 40.3631,47.2625 C40.3631,31.6625 47.5631,22.0625 53.6631,22.0625 M50.7631,104.663 C58.8631,105.363 65.5631,112.163 65.5631,120.963 C65.5631,127.263 61.7631,132.363 56.1631,135.163 C54.9631,135.763 54.7631,135.763 54.5631,134.563 L49.6631,106.063 C49.4631,104.863 49.5631,104.563 50.7631,104.663"/>
<path class="" d="M2450.83,-2179.43 C2450.68,-2183.7 2446.56,-2179.73 2446.56,-2185.88 L2446.56,-2214.23 C2445.43,-2214 2443.78,-2213.93 2441.61,-2213.93 C2439.51,-2213.93 2437.93,-2214 2436.96,-2214.23 C2436.58,-2211.15 2434.56,-2206.2 2430.96,-2199.23 C2431.26,-2199.15 2431.56,-2199.15 2431.78,-2199.15 C2432.01,-2199.15 2436.43,-2204.63 2436.51,-2204.63 C2436.88,-2204.25 2437.03,-2203.2 2437.03,-2201.48 L2437.03,-2186.03 C2437.03,-2182.95 2436.36,-2182.13 2434.26,-2181.53 C2433.51,-2181.3 2433.13,-2180.63 2433.13,-2179.43 L2450.83,-2179.43 M2451.66,-2202.9 C2451.66,-2196.9 2455.78,-2193.3 2461.78,-2193.3 C2464.63,-2193.3 2467.56,-2194.13 2470.63,-2195.7 L2470.63,-2194.2 C2470.63,-2185.35 2468.68,-2181 2464.63,-2181 C2462.98,-2181 2462.16,-2181.53 2462.16,-2182.65 C2462.16,-2183.33 2462.91,-2185.13 2462.91,-2185.95 C2462.91,-2188.95 2460.88,-2191.28 2457.88,-2191.28 C2455.11,-2191.28 2453.16,-2188.95 2453.16,-2186.18 C2453.16,-2181.98 2458.93,-2178.9 2464.93,-2178.9 C2473.63,-2178.9 2479.86,-2186.93 2479.86,-2196.83 C2479.86,-2207.7 2474.83,-2214.75 2465.91,-2214.75 C2457.28,-2214.75 2451.66,-2210.55 2451.66,-2202.9 M2465.76,-2212.13 C2468.76,-2212.13 2470.48,-2208.53 2470.48,-2203.8 C2470.48,-2198.85 2468.61,-2196.38 2464.86,-2196.38 C2461.48,-2196.38 2459.83,-2199.6 2459.83,-2203.8 C2459.83,-2208.68 2462.08,-2212.13 2465.76,-2212.13"/>
<path class="" d="M1055.84,1639.29 L1055.84,1639.89 L1063.06,1639.89 L1063.06,1639.29 L1059.69,1639.29 L1059.69,1607 L1071.91,1640.34 L1072.63,1640.34 L1084.37,1606.68 L1084.37,1639.29 L1080.75,1639.29 L1080.75,1639.89 L1091.8,1639.89 L1091.8,1639.29 L1088.65,1639.29 L1088.65,1606.75 L1091.8,1606.75 L1091.8,1606.14 L1083.9,1606.14 L1074.09,1634.22 L1063.69,1606.14 L1055.62,1606.14 L1055.62,1606.75 L1059.06,1606.75 L1059.06,1639.29 L1055.84,1639.29 M1096.49,1608.39 C1096.49,1609.88 1097.7,1611.09 1099.19,1611.09 C1100.67,1611.09 1101.89,1609.88 1101.89,1608.39 C1101.89,1606.91 1100.67,1605.69 1099.19,1605.69 C1097.7,1605.69 1096.49,1606.91 1096.49,1608.39 M1094.76,1639.29 L1094.76,1639.89 L1104.5,1639.89 L1104.5,1639.29 L1101.66,1639.29 L1101.66,1619.19 L1094.76,1619.19 L1094.76,1619.8 L1097.61,1619.8 L1097.61,1639.29 L1094.76,1639.29 M1107.86,1639.29 L1107.86,1639.89 L1117.53,1639.89 L1117.53,1639.29 L1114.7,1639.29 L1114.7,1629.81 C1114.7,1625.9 1116.27,1619.53 1121.7,1619.53 C1124.17,1619.53 1124.44,1622.37 1124.44,1626.15 L1124.44,1639.29 L1121.58,1639.29 L1121.58,1639.89 L1131.28,1639.89 L1131.28,1639.29 L1128.42,1639.29 L1128.42,1625.54 C1128.42,1621.62 1127.43,1618.74 1122.19,1618.74 C1117.47,1618.74 1115.44,1622.43 1114.7,1626.03 L1114.7,1619.19 L1107.86,1619.19 L1107.86,1619.8 L1110.72,1619.8 L1110.72,1639.29 L1107.86,1639.29 M1157.82,1639.29 L1154.97,1639.29 L1154.97,1606.14 L1148.06,1606.14 L1148.06,1606.75 L1150.92,1606.75 L1150.92,1625.43 C1149.93,1621.38 1147.38,1618.77 1143.81,1618.77 C1139.01,1618.77 1134.42,1622.82 1134.42,1629.57 C1134.42,1636.32 1139.01,1640.32 1143.81,1640.32 C1147.38,1640.32 1149.93,1637.73 1150.92,1633.68 L1150.92,1639.89 L1157.82,1639.89 L1157.82,1639.29 M1150.92,1629.57 C1150.92,1635.93 1147.95,1639.4 1144.55,1639.4 C1140.95,1639.4 1139.08,1635.6 1139.08,1629.57 C1139.08,1623.54 1140.95,1619.67 1144.55,1619.67 C1147.95,1619.67 1150.92,1623.18 1150.92,1629.57 M1178.35,1639.29 L1178.35,1639.89 L1192.53,1639.89 L1192.53,1639.29 L1187.6,1639.29 L1187.6,1606.75 L1192.08,1606.75 C1197.34,1606.75 1198.47,1610.55 1198.47,1616.27 L1199.1,1616.27 L1199.1,1606.14 L1171.8,1606.14 L1171.8,1616.27 L1172.43,1616.27 C1172.43,1610.55 1173.54,1606.75 1178.8,1606.75 L1183.3,1606.75 L1183.3,1639.29 L1178.35,1639.29 M1219.6,1633.82 L1218.93,1633.82 C1217.8,1637.15 1215.08,1639.67 1210.83,1639.67 C1206.08,1639.67 1204.91,1634.67 1204.91,1629.54 C1204.91,1629.05 1204.93,1628.58 1204.95,1628.08 L1219.38,1628.08 C1219.38,1623.18 1216.92,1618.74 1210.33,1618.74 C1204.53,1618.74 1200.25,1622.79 1200.25,1629.54 C1200.25,1636.29 1204.77,1640.34 1210.56,1640.34 C1215.48,1640.34 1218.43,1637.55 1219.6,1633.82 M1210.33,1619.35 C1214.2,1619.35 1214.63,1624.3 1214.61,1627.47 L1204.98,1627.47 C1205.27,1623.13 1206.57,1619.35 1210.33,1619.35 M1221.85,1639.29 L1221.85,1639.89 L1229.92,1639.89 L1229.92,1639.29 L1225.56,1639.29 L1232.42,1630.76 L1238.27,1639.29 L1235.8,1639.29 L1235.8,1639.89 L1245.27,1639.89 L1245.27,1639.29 L1243.13,1639.29 L1235.05,1627.5 L1241.24,1619.8 L1244.59,1619.8 L1244.59,1619.19 L1236.79,1619.19 L1236.79,1619.8 L1240.48,1619.8 L1234.69,1626.98 L1229.77,1619.8 L1232.78,1619.8 L1232.78,1619.19 L1222.3,1619.19 L1222.3,1619.8 L1224.88,1619.8 L1232.06,1630.24 L1224.77,1639.29 L1221.85,1639.29 M1260.82,1635.84 L1260.3,1635.55 C1259.47,1637.35 1257.94,1639.02 1256.41,1639.02 C1255.17,1639.02 1254.67,1638.43 1254.67,1636.18 L1254.67,1619.8 L1259.49,1619.8 L1259.49,1619.19 L1254.67,1619.19 L1254.67,1613.34 C1253.77,1614.02 1251.97,1614.69 1250.62,1614.69 L1250.62,1619.19 L1247.52,1619.19 L1247.52,1619.8 L1250.62,1619.8 L1250.62,1634.9 C1250.62,1637.35 1251.21,1640.21 1254.9,1640.21 C1257.71,1640.21 1259.67,1638.43 1260.82,1635.84 M1283.29,1639.29 L1283.29,1619.19 L1276.07,1619.19 L1276.07,1619.8 L1279.24,1619.8 L1279.24,1629.27 C1279.24,1633.19 1277.73,1639.56 1272.31,1639.56 C1269.83,1639.56 1269.56,1636.72 1269.56,1632.94 L1269.56,1619.19 L1262.66,1619.19 L1262.66,1619.8 L1265.51,1619.8 L1265.51,1633.55 C1265.51,1637.46 1266.55,1640.34 1271.79,1640.34 C1276.61,1640.34 1278.52,1636.68 1279.24,1633.1 L1279.24,1639.89 L1286.15,1639.89 L1286.15,1639.29 L1283.29,1639.29 M1289.26,1639.29 L1289.26,1639.89 L1299.12,1639.89 L1299.12,1639.29 L1296.1,1639.29 L1296.1,1630.11 C1296.1,1624.89 1298.13,1619.37 1302.13,1619.37 C1303.08,1619.37 1303.91,1619.69 1304.52,1620.18 C1304.23,1620.07 1303.91,1620.03 1303.55,1620.03 C1302.27,1620.03 1300.92,1620.88 1300.92,1622.59 C1300.92,1623.94 1301.93,1624.95 1303.57,1624.95 C1305.15,1624.95 1306.14,1623.74 1306.14,1622.21 C1306.14,1620.39 1304.68,1618.74 1302.18,1618.74 C1298.71,1618.74 1296.82,1622.07 1296.1,1625.99 L1296.1,1619.19 L1289.26,1619.19 L1289.26,1619.8 L1292.12,1619.8 L1292.12,1639.29 L1289.26,1639.29 M1328.88,1633.82 L1328.21,1633.82 C1327.08,1637.15 1324.36,1639.67 1320.11,1639.67 C1315.36,1639.67 1314.19,1634.67 1314.19,1629.54 C1314.19,1629.05 1314.21,1628.58 1314.24,1628.08 L1328.66,1628.08 C1328.66,1623.18 1326.21,1618.74 1319.61,1618.74 C1313.81,1618.74 1309.53,1622.79 1309.53,1629.54 C1309.53,1636.29 1314.06,1640.34 1319.84,1640.34 C1324.77,1640.34 1327.71,1637.55 1328.88,1633.82 M1319.61,1619.35 C1323.48,1619.35 1323.91,1624.3 1323.89,1627.47 L1314.26,1627.47 C1314.55,1623.13 1315.86,1619.35 1319.61,1619.35 M1333.63,1640.34 L1335.54,1638.3 C1336.98,1639.56 1338.99,1640.34 1341.12,1640.34 C1345.38,1640.34 1348.62,1637.62 1348.62,1633.62 C1348.62,1625.92 1335.77,1627.74 1335.77,1622.64 C1335.77,1620.61 1337.61,1619.42 1339.93,1619.42 C1343.82,1619.42 1346.61,1622.3 1346.77,1625.04 L1347.38,1625.04 L1347.38,1618.74 L1346.84,1618.74 L1345.06,1620.68 C1343.76,1619.55 1341.96,1618.79 1339.89,1618.79 C1335.61,1618.79 1333.7,1621.83 1333.7,1624.71 C1333.7,1632.74 1345.94,1630.04 1345.94,1635.71 C1345.94,1638.54 1343.4,1639.67 1340.81,1639.67 C1337.28,1639.67 1334.06,1637.06 1333.7,1633.86 L1333.09,1633.86 L1333.09,1640.34 L1333.63,1640.34 "/>
</svg>
